<?xml version="1.0" standalone="no"?>
<!DOCTYPE svg PUBLIC "-//W3C//DTD SVG 20010904//EN"
 "http://www.w3.org/TR/2001/REC-SVG-20010904/DTD/svg10.dtd">
<svg version="1.0" xmlns="http://www.w3.org/2000/svg"
 width="1450.000000pt" height="1450.000000pt" viewBox="0 0 1450.000000 1450.000000"
 preserveAspectRatio="xMidYMid meet">
<metadata>
Created by potrace 1.11, written by Peter Selinger 2001-2013
</metadata>
<g transform="translate(0.000000,1450.000000) scale(0.100000,-0.100000)"
fill="#000000" stroke="none">
<path d="M6749 14496 c-2 -2 -46 -7 -96 -10 -51 -4 -103 -9 -115 -11 -13 -2
-57 -6 -97 -10 -41 -3 -77 -8 -80 -10 -4 -1 -33 -6 -66 -9 -33 -3 -69 -8 -80
-10 -12 -2 -48 -8 -80 -12 -33 -4 -62 -9 -65 -9 -3 -1 -25 -5 -50 -9 -53 -9
-62 -10 -115 -21 -65 -13 -78 -15 -125 -25 -66 -14 -74 -15 -200 -45 -63 -14
-122 -28 -130 -29 -24 -6 -186 -52 -285 -81 -165 -48 -491 -161 -580 -200 -16
-8 -68 -29 -115 -48 -376 -153 -837 -397 -1185 -627 -146 -96 -329 -223 -345
-240 -3 -3 -32 -25 -65 -49 -493 -365 -1041 -916 -1427 -1435 -53 -72 -101
-135 -105 -141 -18 -21 -193 -284 -250 -375 -162 -259 -376 -665 -480 -910 -8
-19 -19 -43 -25 -54 -57 -107 -280 -738 -324 -918 -7 -31 -12 -50 -43 -168
-16 -63 -32 -126 -34 -140 -3 -14 -10 -43 -15 -65 -6 -22 -13 -53 -16 -70 -3
-16 -14 -75 -25 -130 -11 -55 -22 -118 -25 -140 -4 -22 -8 -47 -11 -55 -2 -8
-6 -35 -9 -60 -3 -25 -8 -56 -10 -70 -7 -40 -35 -269 -41 -340 -3 -36 -8 -83
-10 -105 -27 -253 -27 -940 0 -1209 2 -22 7 -72 10 -111 3 -38 8 -81 10 -95 2
-14 6 -50 9 -80 4 -30 8 -64 10 -75 2 -11 7 -47 11 -80 3 -32 8 -62 10 -65 1
-3 6 -27 9 -55 7 -50 15 -103 23 -140 12 -57 34 -172 39 -199 3 -17 11 -56 19
-86 8 -30 16 -66 19 -80 44 -217 252 -885 287 -924 5 -6 9 -16 9 -22 0 -15
109 -278 169 -409 187 -407 445 -848 710 -1215 88 -122 68 -96 219 -285 376
-474 840 -923 1333 -1292 86 -63 330 -234 370 -258 10 -5 68 -42 131 -81 185
-117 370 -220 600 -335 120 -60 220 -109 222 -109 3 0 33 -13 68 -29 194 -89
474 -195 708 -269 91 -29 185 -59 210 -67 54 -17 275 -75 310 -81 14 -3 43
-10 65 -16 22 -5 47 -12 55 -14 38 -8 278 -56 305 -60 17 -3 66 -11 110 -19
44 -8 100 -16 125 -20 25 -3 56 -7 70 -9 14 -3 50 -7 80 -11 30 -3 66 -7 80
-9 14 -3 61 -7 105 -11 44 -4 91 -9 105 -10 214 -27 981 -27 1220 0 19 2 64 7
100 10 73 7 128 13 180 20 19 2 73 9 120 15 139 18 371 59 530 95 58 13 117
26 131 29 191 33 764 216 1049 333 222 92 577 260 720 340 19 11 75 42 123 69
49 27 96 54 105 59 174 104 350 218 542 352 61 42 259 191 276 208 6 5 26 21
44 35 19 14 52 41 75 60 22 19 63 53 89 75 52 43 51 42 182 160 92 82 360 349
449 445 44 47 138 154 234 265 170 196 571 756 622 868 7 15 15 27 19 27 4 0
11 8 14 18 3 9 12 26 19 37 81 130 268 485 344 650 80 175 166 379 198 470 10
28 23 64 30 80 50 114 227 702 249 825 2 14 7 32 10 40 3 8 7 29 10 45 5 29
18 91 31 145 14 58 59 328 71 420 2 19 6 44 9 55 2 11 7 47 10 80 3 33 8 71
10 85 4 23 10 81 20 201 27 320 27 918 0 1219 -27 290 -65 564 -110 790 -3 14
-8 39 -11 55 -2 17 -9 46 -14 65 -5 19 -11 49 -14 65 -5 26 -71 292 -80 320
-1 6 -6 24 -10 40 -23 90 -116 381 -174 542 -101 278 -297 720 -397 893 -8 14
-49 88 -91 165 -123 224 -282 472 -447 700 -81 111 -270 355 -318 410 -14 17
-61 71 -104 120 -216 248 -537 563 -780 765 -49 41 -92 78 -95 81 -3 3 -57 46
-120 95 -481 375 -1017 694 -1560 929 -85 37 -170 74 -189 82 -18 8 -45 19
-60 23 -14 5 -72 26 -128 48 -57 22 -103 38 -103 35 0 -3 -6 -1 -12 5 -18 13
-482 159 -568 177 -8 2 -64 16 -125 30 -60 15 -119 29 -130 31 -11 2 -29 6
-40 8 -74 16 -225 46 -250 51 -117 20 -207 35 -250 40 -27 3 -77 10 -110 15
-33 5 -85 11 -115 14 -135 13 -167 17 -200 22 -39 7 -1114 16 -1121 10z"/>
</g>
</svg>
