<?xml version="1.0" standalone="no"?>
<!DOCTYPE svg PUBLIC "-//W3C//DTD SVG 20010904//EN"
 "http://www.w3.org/TR/2001/REC-SVG-20010904/DTD/svg10.dtd">
<svg version="1.0" xmlns="http://www.w3.org/2000/svg"
 width="300.000000pt" height="300.000000pt" viewBox="0 0 300.000000 300.000000"
 preserveAspectRatio="xMidYMid meet">
<metadata>
Created by potrace 1.11, written by Peter Selinger 2001-2013
</metadata>
<g transform="translate(0.000000,300.000000) scale(0.100000,-0.100000)"
fill="#000000" stroke="none">
<path d="M1397 2974 c-1 -2 -27 -5 -57 -8 -94 -8 -134 -16 -226 -41 -49 -14
-96 -27 -104 -29 -8 -3 -15 -5 -15 -6 0 -1 -7 -3 -15 -5 -8 -2 -46 -17 -85
-35 -38 -17 -72 -31 -74 -30 -2 1 -7 -2 -10 -7 -3 -5 -27 -20 -53 -33 -27 -13
-48 -27 -48 -32 0 -4 -3 -7 -7 -6 -15 5 -199 -138 -255 -198 -101 -107 -139
-151 -144 -166 -3 -10 -10 -18 -15 -18 -5 0 -9 -7 -9 -15 0 -8 -4 -15 -10 -15
-5 0 -10 -7 -10 -15 0 -8 -4 -15 -10 -15 -5 0 -10 -7 -10 -15 0 -8 -4 -15 -9
-15 -5 0 -13 -10 -17 -22 -3 -13 -13 -31 -22 -40 -8 -10 -11 -18 -7 -18 4 0 1
-8 -7 -17 -27 -33 -87 -184 -119 -303 -17 -62 -19 -71 -23 -105 -3 -16 -5 -30
-6 -30 -14 0 -20 -380 -7 -447 4 -21 10 -54 13 -74 3 -20 8 -46 10 -58 3 -11
6 -26 8 -33 1 -7 5 -16 9 -19 4 -4 7 -16 7 -26 0 -10 14 -56 32 -101 18 -45
33 -84 33 -87 1 -3 12 -25 25 -50 13 -25 23 -48 22 -52 -1 -5 3 -8 9 -8 5 0 7
-5 4 -10 -3 -6 -2 -10 3 -10 5 0 12 -8 15 -17 10 -30 52 -94 85 -128 6 -8 12
-17 12 -21 0 -8 4 -12 65 -77 20 -20 33 -37 31 -37 -7 0 83 -86 118 -113 15
-12 38 -31 50 -42 11 -12 36 -30 54 -40 17 -11 32 -23 32 -27 0 -4 5 -8 12 -8
6 0 19 -6 27 -14 26 -23 209 -115 215 -109 3 4 6 1 6 -5 0 -7 3 -11 8 -10 4 1
20 -4 35 -10 16 -7 34 -12 41 -12 6 0 16 -4 21 -9 10 -8 138 -42 180 -47 11
-1 20 -3 20 -4 0 -4 44 -10 115 -17 129 -12 326 -6 400 12 14 4 36 8 50 10 24
3 116 28 205 57 22 6 43 17 47 23 4 5 8 7 8 2 0 -9 211 96 231 115 8 7 26 19
40 26 14 8 38 23 52 35 14 12 40 33 58 47 43 33 178 168 209 209 14 18 30 38
35 44 40 47 141 216 137 230 -1 4 2 7 8 7 5 0 10 4 10 9 0 5 10 30 22 57 12
27 23 54 24 59 2 6 14 42 28 81 13 39 27 86 31 105 7 39 13 64 15 64 3 0 9 57
13 116 2 31 6 60 9 65 10 17 -2 278 -16 354 -4 20 -20 94 -22 100 -1 3 -5 20
-9 38 -4 18 -12 35 -16 38 -5 3 -7 9 -4 14 3 5 0 21 -7 37 -6 15 -12 31 -12
35 -1 3 -4 10 -8 14 -5 4 -8 14 -8 21 0 15 -57 134 -98 205 -29 50 -84 131
-125 180 -67 83 -238 248 -257 248 -5 0 -10 4 -10 8 0 5 -12 15 -27 23 -16 8
-35 22 -44 31 -9 10 -19 15 -23 11 -3 -3 -6 -1 -6 6 0 7 -4 9 -10 6 -5 -3 -10
-1 -10 4 0 6 -6 11 -14 11 -8 0 -16 3 -18 8 -4 10 -190 99 -223 107 -5 2 -39
12 -74 24 -35 11 -73 21 -83 21 -10 0 -18 3 -18 8 0 4 -17 8 -38 10 -34 2 -77
9 -77 12 0 6 -312 20 -318 14z"/>
</g>
</svg>
